<mxfile host="65bd71144e" pages="2">
    <diagram id="srYEW2plO5siVgqCUl8s" name="Dataflow">
        <mxGraphModel dx="551" dy="578" grid="1" gridSize="10" guides="1" tooltips="1" connect="1" arrows="1" fold="1" page="1" pageScale="1" pageWidth="827" pageHeight="1169" math="0" shadow="0">
            <root>
                <mxCell id="0"/>
                <mxCell id="1" parent="0"/>
                <mxCell id="_9CleBU-DUNy-KrrdTIb-30" style="edgeStyle=orthogonalEdgeStyle;rounded=0;orthogonalLoop=1;jettySize=auto;html=1;entryX=0.5;entryY=0;entryDx=0;entryDy=0;fontSize=12;" parent="1" source="_9CleBU-DUNy-KrrdTIb-1" target="_9CleBU-DUNy-KrrdTIb-29" edge="1">
                    <mxGeometry relative="1" as="geometry"/>
                </mxCell>
                <mxCell id="_9CleBU-DUNy-KrrdTIb-1" value="Made an expense" style="rounded=0;whiteSpace=wrap;html=1;" parent="1" vertex="1">
                    <mxGeometry x="392" y="200" width="140" height="50" as="geometry"/>
                </mxCell>
                <mxCell id="_9CleBU-DUNy-KrrdTIb-4" value="" style="ellipse;html=1;shape=startState;fillColor=#000000;strokeColor=#ff0000;" parent="1" vertex="1">
                    <mxGeometry x="447" y="120" width="30" height="30" as="geometry"/>
                </mxCell>
                <mxCell id="_9CleBU-DUNy-KrrdTIb-5" value="" style="edgeStyle=orthogonalEdgeStyle;html=1;verticalAlign=bottom;endArrow=open;endSize=8;strokeColor=#ff0000;rounded=0;entryX=0.5;entryY=0;entryDx=0;entryDy=0;" parent="1" source="_9CleBU-DUNy-KrrdTIb-4" target="_9CleBU-DUNy-KrrdTIb-1" edge="1">
                    <mxGeometry relative="1" as="geometry">
                        <mxPoint x="462" y="190" as="targetPoint"/>
                    </mxGeometry>
                </mxCell>
                <mxCell id="_9CleBU-DUNy-KrrdTIb-13" style="edgeStyle=orthogonalEdgeStyle;rounded=0;orthogonalLoop=1;jettySize=auto;html=1;entryX=0.5;entryY=0;entryDx=0;entryDy=0;" parent="1" source="_9CleBU-DUNy-KrrdTIb-8" target="_9CleBU-DUNy-KrrdTIb-12" edge="1">
                    <mxGeometry relative="1" as="geometry"/>
                </mxCell>
                <mxCell id="_9CleBU-DUNy-KrrdTIb-8" value="Deduct the paid amount from the expense amount" style="rounded=0;whiteSpace=wrap;html=1;" parent="1" vertex="1">
                    <mxGeometry x="219.5" y="390" width="155" height="50" as="geometry"/>
                </mxCell>
                <mxCell id="_9CleBU-DUNy-KrrdTIb-36" style="edgeStyle=orthogonalEdgeStyle;rounded=0;orthogonalLoop=1;jettySize=auto;html=1;entryX=1;entryY=0.5;entryDx=0;entryDy=0;fontSize=12;" parent="1" source="_9CleBU-DUNy-KrrdTIb-10" target="_9CleBU-DUNy-KrrdTIb-14" edge="1">
                    <mxGeometry relative="1" as="geometry">
                        <Array as="points">
                            <mxPoint x="632" y="655"/>
                        </Array>
                    </mxGeometry>
                </mxCell>
                <mxCell id="_9CleBU-DUNy-KrrdTIb-10" value="Calculate the interest for the total expense amount" style="rounded=0;whiteSpace=wrap;html=1;" parent="1" vertex="1">
                    <mxGeometry x="549.5" y="390" width="155" height="50" as="geometry"/>
                </mxCell>
                <mxCell id="_9CleBU-DUNy-KrrdTIb-28" style="edgeStyle=orthogonalEdgeStyle;rounded=0;orthogonalLoop=1;jettySize=auto;html=1;entryX=0.5;entryY=0;entryDx=0;entryDy=0;fontSize=12;" parent="1" source="_9CleBU-DUNy-KrrdTIb-12" target="_9CleBU-DUNy-KrrdTIb-14" edge="1">
                    <mxGeometry relative="1" as="geometry"/>
                </mxCell>
                <mxCell id="_9CleBU-DUNy-KrrdTIb-12" value="Calculate the interest for the remaining balance &lt;b&gt;(monthly interest) - &lt;/b&gt;Happens at the beginning of the month" style="rounded=0;whiteSpace=wrap;html=1;" parent="1" vertex="1">
                    <mxGeometry x="205.75" y="494" width="182.5" height="76.5" as="geometry"/>
                </mxCell>
                <mxCell id="_9CleBU-DUNy-KrrdTIb-21" style="edgeStyle=orthogonalEdgeStyle;rounded=0;orthogonalLoop=1;jettySize=auto;html=1;entryX=0.5;entryY=0;entryDx=0;entryDy=0;" parent="1" source="_9CleBU-DUNy-KrrdTIb-14" target="_9CleBU-DUNy-KrrdTIb-16" edge="1">
                    <mxGeometry relative="1" as="geometry"/>
                </mxCell>
                <mxCell id="_9CleBU-DUNy-KrrdTIb-14" value="Calculate the interest for the next 25 days (If user pay the minimum amount at the 26th day of the month)" style="rounded=0;whiteSpace=wrap;html=1;" parent="1" vertex="1">
                    <mxGeometry x="210.75" y="620" width="172.5" height="70" as="geometry"/>
                </mxCell>
                <mxCell id="_9CleBU-DUNy-KrrdTIb-22" style="edgeStyle=orthogonalEdgeStyle;rounded=0;orthogonalLoop=1;jettySize=auto;html=1;" parent="1" source="_9CleBU-DUNy-KrrdTIb-16" target="_9CleBU-DUNy-KrrdTIb-19" edge="1">
                    <mxGeometry relative="1" as="geometry"/>
                </mxCell>
                <mxCell id="_9CleBU-DUNy-KrrdTIb-24" value="&lt;font style=&quot;font-size: 12px;&quot;&gt;Yes&lt;/font&gt;" style="edgeLabel;html=1;align=center;verticalAlign=middle;resizable=0;points=[];fontSize=11;" parent="_9CleBU-DUNy-KrrdTIb-22" vertex="1" connectable="0">
                    <mxGeometry x="0.2552" relative="1" as="geometry">
                        <mxPoint as="offset"/>
                    </mxGeometry>
                </mxCell>
                <mxCell id="_9CleBU-DUNy-KrrdTIb-23" style="edgeStyle=orthogonalEdgeStyle;rounded=0;orthogonalLoop=1;jettySize=auto;html=1;exitX=0.5;exitY=1;exitDx=0;exitDy=0;" parent="1" source="_9CleBU-DUNy-KrrdTIb-16" target="_9CleBU-DUNy-KrrdTIb-20" edge="1">
                    <mxGeometry relative="1" as="geometry"/>
                </mxCell>
                <mxCell id="_9CleBU-DUNy-KrrdTIb-25" value="No" style="edgeLabel;html=1;align=center;verticalAlign=middle;resizable=0;points=[];fontSize=12;" parent="_9CleBU-DUNy-KrrdTIb-23" vertex="1" connectable="0">
                    <mxGeometry x="-0.1152" y="1" relative="1" as="geometry">
                        <mxPoint as="offset"/>
                    </mxGeometry>
                </mxCell>
                <mxCell id="_9CleBU-DUNy-KrrdTIb-16" value="&lt;font style=&quot;font-size: 11px;&quot;&gt;Made the &lt;br&gt;payment at &lt;br&gt;26th day of &lt;br&gt;the month&lt;/font&gt;" style="rhombus;whiteSpace=wrap;html=1;" parent="1" vertex="1">
                    <mxGeometry x="242" y="730" width="110" height="100" as="geometry"/>
                </mxCell>
                <mxCell id="_9CleBU-DUNy-KrrdTIb-34" style="edgeStyle=orthogonalEdgeStyle;rounded=0;orthogonalLoop=1;jettySize=auto;html=1;entryX=0;entryY=0.5;entryDx=0;entryDy=0;fontSize=12;" parent="1" source="_9CleBU-DUNy-KrrdTIb-19" target="_9CleBU-DUNy-KrrdTIb-33" edge="1">
                    <mxGeometry relative="1" as="geometry">
                        <Array as="points">
                            <mxPoint x="192" y="1035"/>
                        </Array>
                    </mxGeometry>
                </mxCell>
                <mxCell id="_9CleBU-DUNy-KrrdTIb-19" value="Calculate the interest for the next 6 (remaining) days for the balanced amount" style="rounded=0;whiteSpace=wrap;html=1;" parent="1" vertex="1">
                    <mxGeometry x="122" y="870" width="140" height="70" as="geometry"/>
                </mxCell>
                <mxCell id="_9CleBU-DUNy-KrrdTIb-35" style="edgeStyle=orthogonalEdgeStyle;rounded=0;orthogonalLoop=1;jettySize=auto;html=1;fontSize=12;" parent="1" source="_9CleBU-DUNy-KrrdTIb-20" edge="1">
                    <mxGeometry relative="1" as="geometry">
                        <mxPoint x="492" y="1020" as="targetPoint"/>
                    </mxGeometry>
                </mxCell>
                <mxCell id="_9CleBU-DUNy-KrrdTIb-20" value="Calculate the interest for the month (30 days)" style="rounded=0;whiteSpace=wrap;html=1;" parent="1" vertex="1">
                    <mxGeometry x="422" y="870" width="140" height="50" as="geometry"/>
                </mxCell>
                <mxCell id="_9CleBU-DUNy-KrrdTIb-31" style="edgeStyle=orthogonalEdgeStyle;rounded=0;orthogonalLoop=1;jettySize=auto;html=1;entryX=0.5;entryY=0;entryDx=0;entryDy=0;fontSize=12;" parent="1" source="_9CleBU-DUNy-KrrdTIb-29" target="_9CleBU-DUNy-KrrdTIb-8" edge="1">
                    <mxGeometry relative="1" as="geometry"/>
                </mxCell>
                <mxCell id="_9CleBU-DUNy-KrrdTIb-32" style="edgeStyle=orthogonalEdgeStyle;rounded=0;orthogonalLoop=1;jettySize=auto;html=1;entryX=0.5;entryY=0;entryDx=0;entryDy=0;fontSize=12;" parent="1" source="_9CleBU-DUNy-KrrdTIb-29" target="_9CleBU-DUNy-KrrdTIb-10" edge="1">
                    <mxGeometry relative="1" as="geometry"/>
                </mxCell>
                <mxCell id="_9CleBU-DUNy-KrrdTIb-29" value="&lt;font style=&quot;font-size: 11px;&quot;&gt;Made the &lt;br&gt;payment within 51days&lt;/font&gt;" style="rhombus;whiteSpace=wrap;html=1;" parent="1" vertex="1">
                    <mxGeometry x="407" y="270" width="110" height="100" as="geometry"/>
                </mxCell>
                <mxCell id="_9CleBU-DUNy-KrrdTIb-33" value="" style="ellipse;html=1;shape=endState;fillColor=#000000;strokeColor=#ff0000;fontSize=12;" parent="1" vertex="1">
                    <mxGeometry x="477" y="1020" width="30" height="30" as="geometry"/>
                </mxCell>
                <mxCell id="HnaFFX0TEPYtb_lWvUzu-1" value="&lt;font style=&quot;font-size: 21px;&quot;&gt;&lt;b&gt;Application Scenario Flow&lt;/b&gt;&lt;/font&gt;" style="text;html=1;align=center;verticalAlign=middle;resizable=0;points=[];autosize=1;strokeColor=none;fillColor=none;fontSize=12;" parent="1" vertex="1">
                    <mxGeometry x="269" y="40" width="290" height="40" as="geometry"/>
                </mxCell>
            </root>
        </mxGraphModel>
    </diagram>
    <diagram id="mk1n3B6J1LJVsIIWK3rS" name="Database Design">
        <mxGraphModel dx="1198" dy="1133" grid="1" gridSize="10" guides="1" tooltips="1" connect="1" arrows="1" fold="1" page="1" pageScale="1" pageWidth="1169" pageHeight="827" math="0" shadow="0">
            <root>
                <mxCell id="0"/>
                <mxCell id="1" parent="0"/>
                <mxCell id="-kghDROxvdyQzhiFyAsm-1" value="&lt;font style=&quot;font-size: 14px;&quot;&gt;User&lt;/font&gt;" style="whiteSpace=wrap;html=1;align=center;fontSize=21;fillColor=#b1ddf0;strokeColor=#10739e;" vertex="1" parent="1">
                    <mxGeometry x="220" y="260" width="100" height="40" as="geometry"/>
                </mxCell>
                <mxCell id="-kghDROxvdyQzhiFyAsm-3" value="first_name" style="ellipse;whiteSpace=wrap;html=1;align=center;fontSize=14;" vertex="1" parent="1">
                    <mxGeometry x="40" y="120" width="100" height="40" as="geometry"/>
                </mxCell>
                <mxCell id="-kghDROxvdyQzhiFyAsm-4" value="middle_name" style="ellipse;whiteSpace=wrap;html=1;align=center;fontSize=14;" vertex="1" parent="1">
                    <mxGeometry x="130" y="80" width="100" height="40" as="geometry"/>
                </mxCell>
                <mxCell id="-kghDROxvdyQzhiFyAsm-5" value="last_name" style="ellipse;whiteSpace=wrap;html=1;align=center;fontSize=14;" vertex="1" parent="1">
                    <mxGeometry x="230" y="110" width="100" height="40" as="geometry"/>
                </mxCell>
                <mxCell id="-kghDROxvdyQzhiFyAsm-6" value="name" style="ellipse;whiteSpace=wrap;html=1;align=center;fontSize=14;" vertex="1" parent="1">
                    <mxGeometry x="140" y="170" width="100" height="40" as="geometry"/>
                </mxCell>
                <mxCell id="-kghDROxvdyQzhiFyAsm-8" value="" style="endArrow=none;html=1;rounded=0;fontSize=14;exitX=1;exitY=1;exitDx=0;exitDy=0;entryX=0;entryY=0;entryDx=0;entryDy=0;" edge="1" parent="1" source="-kghDROxvdyQzhiFyAsm-3" target="-kghDROxvdyQzhiFyAsm-6">
                    <mxGeometry relative="1" as="geometry">
                        <mxPoint x="120" y="290" as="sourcePoint"/>
                        <mxPoint x="280" y="290" as="targetPoint"/>
                    </mxGeometry>
                </mxCell>
                <mxCell id="-kghDROxvdyQzhiFyAsm-11" value="" style="endArrow=none;html=1;rounded=0;fontSize=14;exitX=0.5;exitY=0;exitDx=0;exitDy=0;entryX=0.5;entryY=1;entryDx=0;entryDy=0;" edge="1" parent="1" source="-kghDROxvdyQzhiFyAsm-6" target="-kghDROxvdyQzhiFyAsm-4">
                    <mxGeometry relative="1" as="geometry">
                        <mxPoint x="140" y="180" as="sourcePoint"/>
                        <mxPoint x="164.64466094067257" y="185.85786437626905" as="targetPoint"/>
                    </mxGeometry>
                </mxCell>
                <mxCell id="-kghDROxvdyQzhiFyAsm-12" value="" style="endArrow=none;html=1;rounded=0;fontSize=14;exitX=1;exitY=0;exitDx=0;exitDy=0;entryX=0;entryY=1;entryDx=0;entryDy=0;" edge="1" parent="1" source="-kghDROxvdyQzhiFyAsm-6" target="-kghDROxvdyQzhiFyAsm-5">
                    <mxGeometry relative="1" as="geometry">
                        <mxPoint x="200" y="180" as="sourcePoint"/>
                        <mxPoint x="180" y="140" as="targetPoint"/>
                    </mxGeometry>
                </mxCell>
                <mxCell id="-kghDROxvdyQzhiFyAsm-13" value="email" style="ellipse;whiteSpace=wrap;html=1;align=center;fontSize=14;" vertex="1" parent="1">
                    <mxGeometry x="70" y="220" width="100" height="40" as="geometry"/>
                </mxCell>
                <mxCell id="-kghDROxvdyQzhiFyAsm-14" value="user_name" style="ellipse;whiteSpace=wrap;html=1;align=center;fontSize=14;" vertex="1" parent="1">
                    <mxGeometry x="50" y="277" width="100" height="40" as="geometry"/>
                </mxCell>
                <mxCell id="-kghDROxvdyQzhiFyAsm-15" value="password" style="ellipse;whiteSpace=wrap;html=1;align=center;fontSize=14;" vertex="1" parent="1">
                    <mxGeometry x="100" y="330" width="100" height="40" as="geometry"/>
                </mxCell>
                <mxCell id="-kghDROxvdyQzhiFyAsm-17" value="phone_number" style="ellipse;whiteSpace=wrap;html=1;align=center;fontSize=14;" vertex="1" parent="1">
                    <mxGeometry x="310" y="170" width="110" height="40" as="geometry"/>
                </mxCell>
                <mxCell id="-kghDROxvdyQzhiFyAsm-18" value="primary_phno" style="ellipse;whiteSpace=wrap;html=1;align=center;fontSize=14;" vertex="1" parent="1">
                    <mxGeometry x="350" y="110" width="100" height="40" as="geometry"/>
                </mxCell>
                <mxCell id="-kghDROxvdyQzhiFyAsm-19" value="secondary_phno" style="ellipse;whiteSpace=wrap;html=1;align=center;fontSize=14;" vertex="1" parent="1">
                    <mxGeometry x="450" y="150" width="130" height="40" as="geometry"/>
                </mxCell>
                <mxCell id="-kghDROxvdyQzhiFyAsm-20" value="" style="endArrow=none;html=1;rounded=0;fontSize=14;exitX=0.755;exitY=0.1;exitDx=0;exitDy=0;entryX=0.5;entryY=1;entryDx=0;entryDy=0;exitPerimeter=0;" edge="1" parent="1" source="-kghDROxvdyQzhiFyAsm-17" target="-kghDROxvdyQzhiFyAsm-18">
                    <mxGeometry relative="1" as="geometry">
                        <mxPoint x="135.35533905932743" y="164.14213562373095" as="sourcePoint"/>
                        <mxPoint x="164.64466094067257" y="185.85786437626905" as="targetPoint"/>
                    </mxGeometry>
                </mxCell>
                <mxCell id="-kghDROxvdyQzhiFyAsm-21" value="" style="endArrow=none;html=1;rounded=0;fontSize=14;exitX=0.964;exitY=0.325;exitDx=0;exitDy=0;entryX=0;entryY=0.5;entryDx=0;entryDy=0;exitPerimeter=0;" edge="1" parent="1" source="-kghDROxvdyQzhiFyAsm-17" target="-kghDROxvdyQzhiFyAsm-19">
                    <mxGeometry relative="1" as="geometry">
                        <mxPoint x="393.04999999999995" y="194" as="sourcePoint"/>
                        <mxPoint x="410" y="160" as="targetPoint"/>
                    </mxGeometry>
                </mxCell>
                <mxCell id="-kghDROxvdyQzhiFyAsm-22" value="profile_image" style="ellipse;whiteSpace=wrap;html=1;align=center;fontSize=14;" vertex="1" parent="1">
                    <mxGeometry x="380" y="224" width="100" height="40" as="geometry"/>
                </mxCell>
                <mxCell id="-kghDROxvdyQzhiFyAsm-23" value="" style="endArrow=none;html=1;rounded=0;fontSize=14;exitX=1;exitY=0.25;exitDx=0;exitDy=0;entryX=0;entryY=0.5;entryDx=0;entryDy=0;" edge="1" parent="1" source="-kghDROxvdyQzhiFyAsm-1" target="-kghDROxvdyQzhiFyAsm-22">
                    <mxGeometry relative="1" as="geometry">
                        <mxPoint x="200" y="180" as="sourcePoint"/>
                        <mxPoint x="190" y="130" as="targetPoint"/>
                    </mxGeometry>
                </mxCell>
                <mxCell id="-kghDROxvdyQzhiFyAsm-24" value="" style="endArrow=none;html=1;rounded=0;fontSize=14;exitX=0.75;exitY=0;exitDx=0;exitDy=0;entryX=0;entryY=1;entryDx=0;entryDy=0;" edge="1" parent="1" source="-kghDROxvdyQzhiFyAsm-1" target="-kghDROxvdyQzhiFyAsm-17">
                    <mxGeometry relative="1" as="geometry">
                        <mxPoint x="330" y="280" as="sourcePoint"/>
                        <mxPoint x="390" y="254" as="targetPoint"/>
                    </mxGeometry>
                </mxCell>
                <mxCell id="-kghDROxvdyQzhiFyAsm-25" value="" style="endArrow=none;html=1;rounded=0;fontSize=14;exitX=0.25;exitY=0;exitDx=0;exitDy=0;entryX=1;entryY=1;entryDx=0;entryDy=0;" edge="1" parent="1" source="-kghDROxvdyQzhiFyAsm-1" target="-kghDROxvdyQzhiFyAsm-6">
                    <mxGeometry relative="1" as="geometry">
                        <mxPoint x="305" y="270" as="sourcePoint"/>
                        <mxPoint x="336.1091270347399" y="214.14213562373084" as="targetPoint"/>
                    </mxGeometry>
                </mxCell>
                <mxCell id="-kghDROxvdyQzhiFyAsm-26" value="" style="endArrow=none;html=1;rounded=0;fontSize=14;exitX=1;exitY=0.5;exitDx=0;exitDy=0;entryX=0;entryY=0.25;entryDx=0;entryDy=0;" edge="1" parent="1" source="-kghDROxvdyQzhiFyAsm-13" target="-kghDROxvdyQzhiFyAsm-1">
                    <mxGeometry relative="1" as="geometry">
                        <mxPoint x="255" y="270" as="sourcePoint"/>
                        <mxPoint x="235.35533905932743" y="214.14213562373095" as="targetPoint"/>
                    </mxGeometry>
                </mxCell>
                <mxCell id="-kghDROxvdyQzhiFyAsm-27" value="" style="endArrow=none;html=1;rounded=0;fontSize=14;exitX=0;exitY=0.5;exitDx=0;exitDy=0;entryX=1;entryY=0.5;entryDx=0;entryDy=0;" edge="1" parent="1" source="-kghDROxvdyQzhiFyAsm-1" target="-kghDROxvdyQzhiFyAsm-14">
                    <mxGeometry relative="1" as="geometry">
                        <mxPoint x="180" y="250" as="sourcePoint"/>
                        <mxPoint x="230" y="280" as="targetPoint"/>
                    </mxGeometry>
                </mxCell>
                <mxCell id="-kghDROxvdyQzhiFyAsm-28" value="" style="endArrow=none;html=1;rounded=0;fontSize=14;entryX=1;entryY=0;entryDx=0;entryDy=0;exitX=0;exitY=0.75;exitDx=0;exitDy=0;" edge="1" parent="1" source="-kghDROxvdyQzhiFyAsm-1" target="-kghDROxvdyQzhiFyAsm-15">
                    <mxGeometry relative="1" as="geometry">
                        <mxPoint x="190" y="310" as="sourcePoint"/>
                        <mxPoint x="160" y="307" as="targetPoint"/>
                    </mxGeometry>
                </mxCell>
                <mxCell id="-kghDROxvdyQzhiFyAsm-30" value="&lt;font style=&quot;font-size: 14px;&quot;&gt;CreditCard&lt;/font&gt;" style="whiteSpace=wrap;html=1;align=center;fontSize=21;fillColor=#b1ddf0;strokeColor=#10739e;" vertex="1" parent="1">
                    <mxGeometry x="250" y="580" width="100" height="40" as="geometry"/>
                </mxCell>
                <mxCell id="-kghDROxvdyQzhiFyAsm-31" value="last_digits" style="ellipse;whiteSpace=wrap;html=1;align=center;fontSize=14;" vertex="1" parent="1">
                    <mxGeometry x="120" y="430" width="100" height="40" as="geometry"/>
                </mxCell>
                <mxCell id="-kghDROxvdyQzhiFyAsm-32" value="name_on_card" style="ellipse;whiteSpace=wrap;html=1;align=center;fontSize=14;" vertex="1" parent="1">
                    <mxGeometry x="70" y="490" width="110" height="40" as="geometry"/>
                </mxCell>
                <mxCell id="-kghDROxvdyQzhiFyAsm-33" value="max_expense_limit" style="ellipse;whiteSpace=wrap;html=1;align=center;fontSize=14;" vertex="1" parent="1">
                    <mxGeometry x="40" y="550" width="140" height="40" as="geometry"/>
                </mxCell>
                <mxCell id="-kghDROxvdyQzhiFyAsm-34" value="bank_name" style="ellipse;whiteSpace=wrap;html=1;align=center;fontSize=14;" vertex="1" parent="1">
                    <mxGeometry x="60" y="610" width="100" height="40" as="geometry"/>
                </mxCell>
                <mxCell id="-kghDROxvdyQzhiFyAsm-35" value="card_type" style="ellipse;whiteSpace=wrap;html=1;align=center;fontSize=14;" vertex="1" parent="1">
                    <mxGeometry x="70" y="670" width="100" height="40" as="geometry"/>
                </mxCell>
                <mxCell id="-kghDROxvdyQzhiFyAsm-36" value="interest_free_days" style="ellipse;whiteSpace=wrap;html=1;align=center;fontSize=14;" vertex="1" parent="1">
                    <mxGeometry x="100" y="720" width="140" height="40" as="geometry"/>
                </mxCell>
                <mxCell id="-kghDROxvdyQzhiFyAsm-37" value="monthly_interest" style="ellipse;whiteSpace=wrap;html=1;align=center;fontSize=14;" vertex="1" parent="1">
                    <mxGeometry x="210" y="760" width="120" height="40" as="geometry"/>
                </mxCell>
                <mxCell id="-kghDROxvdyQzhiFyAsm-38" value="remaining_amount" style="ellipse;whiteSpace=wrap;html=1;align=center;fontSize=14;" vertex="1" parent="1">
                    <mxGeometry x="340" y="740" width="140" height="40" as="geometry"/>
                </mxCell>
                <mxCell id="-kghDROxvdyQzhiFyAsm-39" value="no_of_expenses" style="ellipse;whiteSpace=wrap;html=1;align=center;fontSize=14;" vertex="1" parent="1">
                    <mxGeometry x="400" y="690" width="120" height="40" as="geometry"/>
                </mxCell>
                <mxCell id="-kghDROxvdyQzhiFyAsm-40" value="min_pay_amount" style="ellipse;whiteSpace=wrap;html=1;align=center;fontSize=14;" vertex="1" parent="1">
                    <mxGeometry x="450" y="640" width="120" height="40" as="geometry"/>
                </mxCell>
                <mxCell id="-kghDROxvdyQzhiFyAsm-41" value="" style="endArrow=none;html=1;rounded=0;fontSize=14;entryX=1;entryY=1;entryDx=0;entryDy=0;exitX=0.25;exitY=0;exitDx=0;exitDy=0;" edge="1" parent="1" source="-kghDROxvdyQzhiFyAsm-30" target="-kghDROxvdyQzhiFyAsm-31">
                    <mxGeometry relative="1" as="geometry">
                        <mxPoint x="230" y="300" as="sourcePoint"/>
                        <mxPoint x="195.35533905932743" y="345.85786437626894" as="targetPoint"/>
                    </mxGeometry>
                </mxCell>
                <mxCell id="-kghDROxvdyQzhiFyAsm-42" value="" style="endArrow=none;html=1;rounded=0;fontSize=14;entryX=1;entryY=0.5;entryDx=0;entryDy=0;exitX=0;exitY=0;exitDx=0;exitDy=0;" edge="1" parent="1" source="-kghDROxvdyQzhiFyAsm-30" target="-kghDROxvdyQzhiFyAsm-32">
                    <mxGeometry relative="1" as="geometry">
                        <mxPoint x="285" y="590" as="sourcePoint"/>
                        <mxPoint x="215.35533905932743" y="474.14213562373106" as="targetPoint"/>
                    </mxGeometry>
                </mxCell>
                <mxCell id="-kghDROxvdyQzhiFyAsm-43" value="" style="endArrow=none;html=1;rounded=0;fontSize=14;entryX=1;entryY=0.5;entryDx=0;entryDy=0;exitX=0;exitY=0.25;exitDx=0;exitDy=0;" edge="1" parent="1" source="-kghDROxvdyQzhiFyAsm-30" target="-kghDROxvdyQzhiFyAsm-33">
                    <mxGeometry relative="1" as="geometry">
                        <mxPoint x="210" y="600" as="sourcePoint"/>
                        <mxPoint x="190" y="520" as="targetPoint"/>
                    </mxGeometry>
                </mxCell>
                <mxCell id="-kghDROxvdyQzhiFyAsm-44" value="" style="endArrow=none;html=1;rounded=0;fontSize=14;entryX=1;entryY=0.5;entryDx=0;entryDy=0;exitX=0;exitY=0.5;exitDx=0;exitDy=0;" edge="1" parent="1" source="-kghDROxvdyQzhiFyAsm-30" target="-kghDROxvdyQzhiFyAsm-34">
                    <mxGeometry relative="1" as="geometry">
                        <mxPoint x="230" y="620" as="sourcePoint"/>
                        <mxPoint x="190" y="580" as="targetPoint"/>
                    </mxGeometry>
                </mxCell>
                <mxCell id="-kghDROxvdyQzhiFyAsm-45" value="" style="endArrow=none;html=1;rounded=0;fontSize=14;entryX=1;entryY=0;entryDx=0;entryDy=0;exitX=0;exitY=0.75;exitDx=0;exitDy=0;" edge="1" parent="1" source="-kghDROxvdyQzhiFyAsm-30" target="-kghDROxvdyQzhiFyAsm-35">
                    <mxGeometry relative="1" as="geometry">
                        <mxPoint x="260" y="610" as="sourcePoint"/>
                        <mxPoint x="170" y="640" as="targetPoint"/>
                    </mxGeometry>
                </mxCell>
                <mxCell id="-kghDROxvdyQzhiFyAsm-46" value="" style="endArrow=none;html=1;rounded=0;fontSize=14;entryX=1;entryY=0;entryDx=0;entryDy=0;exitX=0.25;exitY=1;exitDx=0;exitDy=0;" edge="1" parent="1" source="-kghDROxvdyQzhiFyAsm-30" target="-kghDROxvdyQzhiFyAsm-36">
                    <mxGeometry relative="1" as="geometry">
                        <mxPoint x="260" y="620" as="sourcePoint"/>
                        <mxPoint x="165.35533905932743" y="685.8578643762689" as="targetPoint"/>
                    </mxGeometry>
                </mxCell>
                <mxCell id="-kghDROxvdyQzhiFyAsm-47" value="" style="endArrow=none;html=1;rounded=0;fontSize=14;entryX=0.5;entryY=0;entryDx=0;entryDy=0;exitX=0.5;exitY=1;exitDx=0;exitDy=0;" edge="1" parent="1" source="-kghDROxvdyQzhiFyAsm-30" target="-kghDROxvdyQzhiFyAsm-37">
                    <mxGeometry relative="1" as="geometry">
                        <mxPoint x="285" y="630" as="sourcePoint"/>
                        <mxPoint x="229.49747468305839" y="735.8578643762689" as="targetPoint"/>
                    </mxGeometry>
                </mxCell>
                <mxCell id="-kghDROxvdyQzhiFyAsm-48" value="" style="endArrow=none;html=1;rounded=0;fontSize=14;entryX=0;entryY=0;entryDx=0;entryDy=0;exitX=0.75;exitY=1;exitDx=0;exitDy=0;" edge="1" parent="1" source="-kghDROxvdyQzhiFyAsm-30" target="-kghDROxvdyQzhiFyAsm-38">
                    <mxGeometry relative="1" as="geometry">
                        <mxPoint x="310" y="630" as="sourcePoint"/>
                        <mxPoint x="280" y="770" as="targetPoint"/>
                    </mxGeometry>
                </mxCell>
                <mxCell id="-kghDROxvdyQzhiFyAsm-49" value="" style="endArrow=none;html=1;rounded=0;fontSize=14;entryX=0;entryY=0;entryDx=0;entryDy=0;exitX=1;exitY=1;exitDx=0;exitDy=0;" edge="1" parent="1" source="-kghDROxvdyQzhiFyAsm-30" target="-kghDROxvdyQzhiFyAsm-39">
                    <mxGeometry relative="1" as="geometry">
                        <mxPoint x="335" y="630" as="sourcePoint"/>
                        <mxPoint x="370.5025253169416" y="755.8578643762689" as="targetPoint"/>
                    </mxGeometry>
                </mxCell>
                <mxCell id="-kghDROxvdyQzhiFyAsm-50" value="" style="endArrow=none;html=1;rounded=0;fontSize=14;entryX=0;entryY=0.5;entryDx=0;entryDy=0;exitX=1;exitY=0.75;exitDx=0;exitDy=0;" edge="1" parent="1" source="-kghDROxvdyQzhiFyAsm-30" target="-kghDROxvdyQzhiFyAsm-40">
                    <mxGeometry relative="1" as="geometry">
                        <mxPoint x="360" y="630" as="sourcePoint"/>
                        <mxPoint x="427.57359312880703" y="705.8578643762689" as="targetPoint"/>
                    </mxGeometry>
                </mxCell>
                <mxCell id="-kghDROxvdyQzhiFyAsm-51" value="&lt;font style=&quot;font-size: 14px;&quot;&gt;Expense&lt;/font&gt;" style="whiteSpace=wrap;html=1;align=center;fontSize=21;fillColor=#b1ddf0;strokeColor=#10739e;" vertex="1" parent="1">
                    <mxGeometry x="840" y="550" width="100" height="40" as="geometry"/>
                </mxCell>
                <mxCell id="-kghDROxvdyQzhiFyAsm-52" value="amount" style="ellipse;whiteSpace=wrap;html=1;align=center;fontSize=14;" vertex="1" parent="1">
                    <mxGeometry x="710" y="630" width="100" height="40" as="geometry"/>
                </mxCell>
                <mxCell id="-kghDROxvdyQzhiFyAsm-53" value="date_time" style="ellipse;whiteSpace=wrap;html=1;align=center;fontSize=14;" vertex="1" parent="1">
                    <mxGeometry x="840" y="660" width="100" height="40" as="geometry"/>
                </mxCell>
                <mxCell id="-kghDROxvdyQzhiFyAsm-54" value="title" style="ellipse;whiteSpace=wrap;html=1;align=center;fontSize=14;" vertex="1" parent="1">
                    <mxGeometry x="1000" y="480" width="100" height="40" as="geometry"/>
                </mxCell>
                <mxCell id="-kghDROxvdyQzhiFyAsm-55" value="description" style="ellipse;whiteSpace=wrap;html=1;align=center;fontSize=14;" vertex="1" parent="1">
                    <mxGeometry x="970" y="620" width="100" height="40" as="geometry"/>
                </mxCell>
                <mxCell id="-kghDROxvdyQzhiFyAsm-56" value="type" style="ellipse;whiteSpace=wrap;html=1;align=center;fontSize=14;" vertex="1" parent="1">
                    <mxGeometry x="1030" y="550" width="100" height="40" as="geometry"/>
                </mxCell>
                <mxCell id="-kghDROxvdyQzhiFyAsm-57" value="" style="endArrow=none;html=1;rounded=0;fontSize=14;entryX=0.25;entryY=1;entryDx=0;entryDy=0;exitX=1;exitY=0;exitDx=0;exitDy=0;" edge="1" parent="1" source="-kghDROxvdyQzhiFyAsm-52" target="-kghDROxvdyQzhiFyAsm-51">
                    <mxGeometry relative="1" as="geometry">
                        <mxPoint x="360" y="620" as="sourcePoint"/>
                        <mxPoint x="460" y="670" as="targetPoint"/>
                    </mxGeometry>
                </mxCell>
                <mxCell id="-kghDROxvdyQzhiFyAsm-58" value="" style="endArrow=none;html=1;rounded=0;fontSize=14;entryX=0.5;entryY=1;entryDx=0;entryDy=0;exitX=0.5;exitY=0;exitDx=0;exitDy=0;" edge="1" parent="1" source="-kghDROxvdyQzhiFyAsm-53" target="-kghDROxvdyQzhiFyAsm-51">
                    <mxGeometry relative="1" as="geometry">
                        <mxPoint x="805.3553390593274" y="645.8578643762689" as="sourcePoint"/>
                        <mxPoint x="875" y="600" as="targetPoint"/>
                    </mxGeometry>
                </mxCell>
                <mxCell id="-kghDROxvdyQzhiFyAsm-59" value="" style="endArrow=none;html=1;rounded=0;fontSize=14;entryX=0.75;entryY=1;entryDx=0;entryDy=0;exitX=0;exitY=0;exitDx=0;exitDy=0;" edge="1" parent="1" source="-kghDROxvdyQzhiFyAsm-55" target="-kghDROxvdyQzhiFyAsm-51">
                    <mxGeometry relative="1" as="geometry">
                        <mxPoint x="900" y="670" as="sourcePoint"/>
                        <mxPoint x="900" y="600" as="targetPoint"/>
                    </mxGeometry>
                </mxCell>
                <mxCell id="-kghDROxvdyQzhiFyAsm-60" value="" style="endArrow=none;html=1;rounded=0;fontSize=14;entryX=1;entryY=0.5;entryDx=0;entryDy=0;exitX=0;exitY=0.5;exitDx=0;exitDy=0;" edge="1" parent="1" source="-kghDROxvdyQzhiFyAsm-56" target="-kghDROxvdyQzhiFyAsm-51">
                    <mxGeometry relative="1" as="geometry">
                        <mxPoint x="994.6446609406726" y="635.8578643762689" as="sourcePoint"/>
                        <mxPoint x="925" y="600" as="targetPoint"/>
                    </mxGeometry>
                </mxCell>
                <mxCell id="-kghDROxvdyQzhiFyAsm-61" value="" style="endArrow=none;html=1;rounded=0;fontSize=14;entryX=1;entryY=0.25;entryDx=0;entryDy=0;exitX=0;exitY=1;exitDx=0;exitDy=0;" edge="1" parent="1" source="-kghDROxvdyQzhiFyAsm-54" target="-kghDROxvdyQzhiFyAsm-51">
                    <mxGeometry relative="1" as="geometry">
                        <mxPoint x="1040" y="580" as="sourcePoint"/>
                        <mxPoint x="950" y="580" as="targetPoint"/>
                    </mxGeometry>
                </mxCell>
                <mxCell id="-kghDROxvdyQzhiFyAsm-62" value="&lt;font style=&quot;font-size: 14px;&quot;&gt;Auth&lt;/font&gt;" style="whiteSpace=wrap;html=1;align=center;fontSize=21;fillColor=#fad7ac;strokeColor=#b46504;" vertex="1" parent="1">
                    <mxGeometry x="740" y="290" width="100" height="40" as="geometry"/>
                </mxCell>
                <mxCell id="-kghDROxvdyQzhiFyAsm-63" value="token" style="ellipse;whiteSpace=wrap;html=1;align=center;fontSize=14;" vertex="1" parent="1">
                    <mxGeometry x="690" y="200" width="100" height="40" as="geometry"/>
                </mxCell>
                <mxCell id="-kghDROxvdyQzhiFyAsm-64" value="expired_in&amp;nbsp;" style="ellipse;whiteSpace=wrap;html=1;align=center;fontSize=14;" vertex="1" parent="1">
                    <mxGeometry x="830" y="200" width="100" height="40" as="geometry"/>
                </mxCell>
                <mxCell id="-kghDROxvdyQzhiFyAsm-65" value="created_date_time" style="ellipse;whiteSpace=wrap;html=1;align=center;fontSize=14;" vertex="1" parent="1">
                    <mxGeometry x="880" y="270" width="140" height="40" as="geometry"/>
                </mxCell>
                <mxCell id="-kghDROxvdyQzhiFyAsm-66" value="" style="endArrow=none;html=1;rounded=0;fontSize=14;exitX=0.5;exitY=1;exitDx=0;exitDy=0;entryX=0.25;entryY=0;entryDx=0;entryDy=0;" edge="1" parent="1" source="-kghDROxvdyQzhiFyAsm-63" target="-kghDROxvdyQzhiFyAsm-62">
                    <mxGeometry relative="1" as="geometry">
                        <mxPoint x="466.03999999999996" y="193" as="sourcePoint"/>
                        <mxPoint x="500" y="180" as="targetPoint"/>
                    </mxGeometry>
                </mxCell>
                <mxCell id="-kghDROxvdyQzhiFyAsm-67" value="" style="endArrow=none;html=1;rounded=0;fontSize=14;exitX=0;exitY=1;exitDx=0;exitDy=0;entryX=0.75;entryY=0;entryDx=0;entryDy=0;" edge="1" parent="1" source="-kghDROxvdyQzhiFyAsm-64" target="-kghDROxvdyQzhiFyAsm-62">
                    <mxGeometry relative="1" as="geometry">
                        <mxPoint x="750" y="250" as="sourcePoint"/>
                        <mxPoint x="775" y="300" as="targetPoint"/>
                    </mxGeometry>
                </mxCell>
                <mxCell id="-kghDROxvdyQzhiFyAsm-68" value="" style="endArrow=none;html=1;rounded=0;fontSize=14;exitX=0;exitY=0.5;exitDx=0;exitDy=0;entryX=1;entryY=0.25;entryDx=0;entryDy=0;" edge="1" parent="1" source="-kghDROxvdyQzhiFyAsm-65" target="-kghDROxvdyQzhiFyAsm-62">
                    <mxGeometry relative="1" as="geometry">
                        <mxPoint x="854.6446609406726" y="244.14213562373084" as="sourcePoint"/>
                        <mxPoint x="800" y="300" as="targetPoint"/>
                    </mxGeometry>
                </mxCell>
                <mxCell id="-kghDROxvdyQzhiFyAsm-69" value="has" style="shape=rhombus;perimeter=rhombusPerimeter;whiteSpace=wrap;html=1;align=center;fontSize=14;fillColor=#d0cee2;strokeColor=#56517e;" vertex="1" parent="1">
                    <mxGeometry x="480" y="280" width="120" height="60" as="geometry"/>
                </mxCell>
                <mxCell id="-kghDROxvdyQzhiFyAsm-70" value="stores" style="shape=rhombus;perimeter=rhombusPerimeter;whiteSpace=wrap;html=1;align=center;fontSize=14;fillColor=#d0cee2;strokeColor=#56517e;" vertex="1" parent="1">
                    <mxGeometry x="250" y="400" width="120" height="60" as="geometry"/>
                </mxCell>
                <mxCell id="-kghDROxvdyQzhiFyAsm-71" value="has" style="shape=rhombus;perimeter=rhombusPerimeter;whiteSpace=wrap;html=1;align=center;fontSize=14;fillColor=#d0cee2;strokeColor=#56517e;" vertex="1" parent="1">
                    <mxGeometry x="540" y="570" width="120" height="60" as="geometry"/>
                </mxCell>
                <mxCell id="-kghDROxvdyQzhiFyAsm-74" value="" style="endArrow=none;html=1;rounded=0;fontSize=14;entryX=0;entryY=0.5;entryDx=0;entryDy=0;exitX=1;exitY=0.5;exitDx=0;exitDy=0;" edge="1" parent="1" source="-kghDROxvdyQzhiFyAsm-1" target="-kghDROxvdyQzhiFyAsm-69">
                    <mxGeometry relative="1" as="geometry">
                        <mxPoint x="190" y="350" as="sourcePoint"/>
                        <mxPoint x="350" y="350" as="targetPoint"/>
                    </mxGeometry>
                </mxCell>
                <mxCell id="-kghDROxvdyQzhiFyAsm-75" value="" style="endArrow=none;html=1;rounded=0;fontSize=14;entryX=0;entryY=0.5;entryDx=0;entryDy=0;exitX=1;exitY=0.5;exitDx=0;exitDy=0;" edge="1" parent="1" source="-kghDROxvdyQzhiFyAsm-69" target="-kghDROxvdyQzhiFyAsm-62">
                    <mxGeometry relative="1" as="geometry">
                        <mxPoint x="330" y="290" as="sourcePoint"/>
                        <mxPoint x="490" y="320" as="targetPoint"/>
                    </mxGeometry>
                </mxCell>
                <mxCell id="-kghDROxvdyQzhiFyAsm-77" value="" style="endArrow=none;html=1;rounded=0;fontSize=14;entryX=0.5;entryY=0;entryDx=0;entryDy=0;exitX=0.5;exitY=1;exitDx=0;exitDy=0;" edge="1" parent="1" source="-kghDROxvdyQzhiFyAsm-1" target="-kghDROxvdyQzhiFyAsm-70">
                    <mxGeometry relative="1" as="geometry">
                        <mxPoint x="330" y="290" as="sourcePoint"/>
                        <mxPoint x="490" y="320" as="targetPoint"/>
                    </mxGeometry>
                </mxCell>
                <mxCell id="-kghDROxvdyQzhiFyAsm-79" value="1" style="edgeLabel;html=1;align=center;verticalAlign=middle;resizable=0;points=[];fontSize=14;" vertex="1" connectable="0" parent="-kghDROxvdyQzhiFyAsm-77">
                    <mxGeometry x="-0.0306" y="2" relative="1" as="geometry">
                        <mxPoint as="offset"/>
                    </mxGeometry>
                </mxCell>
                <mxCell id="-kghDROxvdyQzhiFyAsm-78" value="" style="endArrow=none;html=1;rounded=0;fontSize=14;entryX=0.5;entryY=0;entryDx=0;entryDy=0;exitX=0.5;exitY=1;exitDx=0;exitDy=0;" edge="1" parent="1" source="-kghDROxvdyQzhiFyAsm-70" target="-kghDROxvdyQzhiFyAsm-30">
                    <mxGeometry relative="1" as="geometry">
                        <mxPoint x="280" y="310" as="sourcePoint"/>
                        <mxPoint x="350" y="420" as="targetPoint"/>
                    </mxGeometry>
                </mxCell>
                <mxCell id="-kghDROxvdyQzhiFyAsm-80" value="N" style="edgeLabel;html=1;align=center;verticalAlign=middle;resizable=0;points=[];fontSize=14;" vertex="1" connectable="0" parent="-kghDROxvdyQzhiFyAsm-78">
                    <mxGeometry x="0.2161" relative="1" as="geometry">
                        <mxPoint as="offset"/>
                    </mxGeometry>
                </mxCell>
                <mxCell id="-kghDROxvdyQzhiFyAsm-81" value="" style="endArrow=none;html=1;rounded=0;fontSize=14;entryX=1;entryY=0.5;entryDx=0;entryDy=0;exitX=0;exitY=0.5;exitDx=0;exitDy=0;" edge="1" parent="1" source="-kghDROxvdyQzhiFyAsm-71" target="-kghDROxvdyQzhiFyAsm-30">
                    <mxGeometry relative="1" as="geometry">
                        <mxPoint x="320" y="470" as="sourcePoint"/>
                        <mxPoint x="310" y="590" as="targetPoint"/>
                    </mxGeometry>
                </mxCell>
                <mxCell id="-kghDROxvdyQzhiFyAsm-82" value="1" style="edgeLabel;html=1;align=center;verticalAlign=middle;resizable=0;points=[];fontSize=14;" vertex="1" connectable="0" parent="-kghDROxvdyQzhiFyAsm-81">
                    <mxGeometry x="0.2161" relative="1" as="geometry">
                        <mxPoint as="offset"/>
                    </mxGeometry>
                </mxCell>
                <mxCell id="-kghDROxvdyQzhiFyAsm-83" value="" style="endArrow=none;html=1;rounded=0;fontSize=14;entryX=1;entryY=0.5;entryDx=0;entryDy=0;exitX=0;exitY=0.5;exitDx=0;exitDy=0;" edge="1" parent="1" source="-kghDROxvdyQzhiFyAsm-51" target="-kghDROxvdyQzhiFyAsm-71">
                    <mxGeometry relative="1" as="geometry">
                        <mxPoint x="550" y="610" as="sourcePoint"/>
                        <mxPoint x="360" y="610" as="targetPoint"/>
                    </mxGeometry>
                </mxCell>
                <mxCell id="-kghDROxvdyQzhiFyAsm-84" value="N" style="edgeLabel;html=1;align=center;verticalAlign=middle;resizable=0;points=[];fontSize=14;" vertex="1" connectable="0" parent="-kghDROxvdyQzhiFyAsm-83">
                    <mxGeometry x="0.2161" relative="1" as="geometry">
                        <mxPoint as="offset"/>
                    </mxGeometry>
                </mxCell>
                <mxCell id="-kghDROxvdyQzhiFyAsm-86" value="has" style="shape=rhombus;perimeter=rhombusPerimeter;whiteSpace=wrap;html=1;align=center;fontSize=14;fillColor=#d0cee2;strokeColor=#56517e;" vertex="1" parent="1">
                    <mxGeometry x="480" y="430" width="120" height="60" as="geometry"/>
                </mxCell>
                <mxCell id="-kghDROxvdyQzhiFyAsm-87" value="" style="endArrow=none;html=1;rounded=0;fontSize=14;entryX=0;entryY=0;entryDx=0;entryDy=0;exitX=0.75;exitY=1;exitDx=0;exitDy=0;" edge="1" parent="1" source="-kghDROxvdyQzhiFyAsm-1" target="-kghDROxvdyQzhiFyAsm-86">
                    <mxGeometry relative="1" as="geometry">
                        <mxPoint x="330" y="290" as="sourcePoint"/>
                        <mxPoint x="490" y="320" as="targetPoint"/>
                    </mxGeometry>
                </mxCell>
                <mxCell id="-kghDROxvdyQzhiFyAsm-89" value="1" style="edgeLabel;html=1;align=center;verticalAlign=middle;resizable=0;points=[];fontSize=14;" vertex="1" connectable="0" parent="-kghDROxvdyQzhiFyAsm-87">
                    <mxGeometry x="0.011" relative="1" as="geometry">
                        <mxPoint as="offset"/>
                    </mxGeometry>
                </mxCell>
                <mxCell id="-kghDROxvdyQzhiFyAsm-88" value="" style="endArrow=none;html=1;rounded=0;fontSize=14;entryX=0;entryY=0.25;entryDx=0;entryDy=0;exitX=1;exitY=1;exitDx=0;exitDy=0;" edge="1" parent="1" source="-kghDROxvdyQzhiFyAsm-86" target="-kghDROxvdyQzhiFyAsm-51">
                    <mxGeometry relative="1" as="geometry">
                        <mxPoint x="305" y="310" as="sourcePoint"/>
                        <mxPoint x="530" y="450" as="targetPoint"/>
                    </mxGeometry>
                </mxCell>
                <mxCell id="-kghDROxvdyQzhiFyAsm-90" value="N" style="edgeLabel;html=1;align=center;verticalAlign=middle;resizable=0;points=[];fontSize=14;" vertex="1" connectable="0" parent="-kghDROxvdyQzhiFyAsm-88">
                    <mxGeometry x="-0.3022" y="2" relative="1" as="geometry">
                        <mxPoint as="offset"/>
                    </mxGeometry>
                </mxCell>
                <mxCell id="jcp0OmtsuRiHQ2pMWxLN-1" value="&lt;font style=&quot;font-size: 21px;&quot;&gt;&lt;b&gt;Database ER Digram&lt;/b&gt;&lt;/font&gt;" style="text;html=1;align=center;verticalAlign=middle;resizable=0;points=[];autosize=1;strokeColor=none;fillColor=none;fontSize=12;" vertex="1" parent="1">
                    <mxGeometry x="470" y="20" width="230" height="40" as="geometry"/>
                </mxCell>
            </root>
        </mxGraphModel>
    </diagram>
</mxfile>